<?xml version="1.0" encoding="UTF-8" standalone="no"?>
<!DOCTYPE svg PUBLIC "-//W3C//DTD SVG 1.1//EN" "http://www.w3.org/Graphics/SVG/1.1/DTD/svg11.dtd">
<svg version="1.1" xmlns="http://www.w3.org/2000/svg" xmlns:xlink="http://www.w3.org/1999/xlink"
    preserveAspectRatio="xMidYMid meet" viewBox="0 0 640 640" width="640" height="640">
    <defs>
        <path
            d="M474 560.77C501.31 560.77 518.37 560.77 525.2 560.77C533.37 560.77 540 554.14 540 545.97C540 513.07 540 430.82 540 299.23"
            id="bPhtz2H"></path>
        <path d="M474 430L540 430L540 299.23" id="a4H36cHyFm"></path>
        <path d="M474 299.23L540 299.23L540 430" id="a4aPShmgS4"></path>
        <path
            d="M118.8 338.46C189.84 338.46 385.67 338.46 457.08 338.46C466.43 338.46 474 330.89 474 321.54C474 309.24 474 289.98 474 277.86C474 268 466 260 456.14 260C384.91 260 189.47 260 118.33 260C108.21 260 100 268.21 100 278.33C100 290.36 100 307.73 100 319.66C100 330.04 108.42 338.46 118.8 338.46Z"
            id="lW6VM5v0u"></path>
        <path
            d="M118.8 338.46C189.84 338.46 385.67 338.46 457.08 338.46C466.43 338.46 474 330.89 474 321.54C474 309.24 474 289.98 474 277.86C474 268 466 260 456.14 260C384.91 260 189.47 260 118.33 260C108.21 260 100 268.21 100 278.33C100 290.36 100 307.73 100 319.66C100 330.04 108.42 338.46 118.8 338.46Z"
            id="a1uBThLtVd"></path>
        <path
            d="M320 281.79C320 290.51 320 307.95 320 316.67C320 321.48 316.1 325.38 311.28 325.38C273.43 325.38 168.57 325.38 130.72 325.38C125.9 325.38 122 321.48 122 316.67C122 307.95 122 290.51 122 281.79C122 276.98 125.9 273.08 130.72 273.08C168.57 273.08 273.43 273.08 311.28 273.08C316.1 273.08 320 276.98 320 281.79Z"
            id="a246XicHPs"></path>
        <path
            d="M320 281.79C320 290.51 320 307.95 320 316.67C320 321.48 316.1 325.38 311.28 325.38C273.43 325.38 168.57 325.38 130.72 325.38C125.9 325.38 122 321.48 122 316.67C122 307.95 122 290.51 122 281.79C122 276.98 125.9 273.08 130.72 273.08C168.57 273.08 273.43 273.08 311.28 273.08C316.1 273.08 320 276.98 320 281.79Z"
            id="c2FLIyGUlC"></path>
        <path
            d="M426 325.38C411.65 325.38 400 313.67 400 299.23C400 284.8 411.65 273.08 426 273.08C440.35 273.08 452 284.8 452 299.23C452 313.67 440.35 325.38 426 325.38Z"
            id="b2tHhNZ2fm"></path>
        <path
            d="M426 325.38C411.65 325.38 400 313.67 400 299.23C400 284.8 411.65 273.08 426 273.08C440.35 273.08 452 284.8 452 299.23C452 313.67 440.35 325.38 426 325.38Z"
            id="j3wPBAcgGr"></path>
        <path
            d="M118.8 469.23C189.84 469.23 385.67 469.23 457.08 469.23C466.43 469.23 474 461.66 474 452.31C474 440 474 420.75 474 408.63C474 398.77 466 390.77 456.14 390.77C384.91 390.77 189.47 390.77 118.33 390.77C108.21 390.77 100 398.98 100 409.1C100 421.13 100 438.49 100 450.43C100 460.81 108.42 469.23 118.8 469.23Z"
            id="d7wfYm1gR"></path>
        <path
            d="M118.8 469.23C189.84 469.23 385.67 469.23 457.08 469.23C466.43 469.23 474 461.66 474 452.31C474 440 474 420.75 474 408.63C474 398.77 466 390.77 456.14 390.77C384.91 390.77 189.47 390.77 118.33 390.77C108.21 390.77 100 398.98 100 409.1C100 421.13 100 438.49 100 450.43C100 460.81 108.42 469.23 118.8 469.23Z"
            id="a8Q4AwXgrs"></path>
        <path
            d="M426 456.15C411.65 456.15 400 444.43 400 430C400 415.57 411.65 403.85 426 403.85C440.35 403.85 452 415.57 452 430C452 444.43 440.35 456.15 426 456.15Z"
            id="hTfQaIf1l"></path>
        <path
            d="M426 456.15C411.65 456.15 400 444.43 400 430C400 415.57 411.65 403.85 426 403.85C440.35 403.85 452 415.57 452 430C452 444.43 440.35 456.15 426 456.15Z"
            id="eClN5Tz9L"></path>
        <path
            d="M118.8 600C189.84 600 385.67 600 457.08 600C466.43 600 474 592.43 474 583.08C474 570.77 474 551.52 474 539.4C474 529.54 466 521.54 456.14 521.54C384.91 521.54 189.47 521.54 118.33 521.54C108.21 521.54 100 529.75 100 539.87C100 551.9 100 569.26 100 581.2C100 591.58 108.42 600 118.8 600Z"
            id="b5doise8u8"></path>
        <path
            d="M118.8 600C189.84 600 385.67 600 457.08 600C466.43 600 474 592.43 474 583.08C474 570.77 474 551.52 474 539.4C474 529.54 466 521.54 456.14 521.54C384.91 521.54 189.47 521.54 118.33 521.54C108.21 521.54 100 529.75 100 539.87C100 551.9 100 569.26 100 581.2C100 591.58 108.42 600 118.8 600Z"
            id="a5wziTCTg"></path>
        <path
            d="M426 586.92C411.65 586.92 400 575.2 400 560.77C400 546.33 411.65 534.62 426 534.62C440.35 534.62 452 546.33 452 560.77C452 575.2 440.35 586.92 426 586.92Z"
            id="gYVoBfN04"></path>
        <path
            d="M426 586.92C411.65 586.92 400 575.2 400 560.77C400 546.33 411.65 534.62 426 534.62C440.35 534.62 452 546.33 452 560.77C452 575.2 440.35 586.92 426 586.92Z"
            id="b2qXv0SsaQ"></path>
        <path
            d="M318 416.41C318 425.13 318 442.57 318 451.29C318 456.1 314.1 460 309.28 460C271.43 460 166.57 460 128.72 460C123.9 460 120 456.1 120 451.29C120 442.57 120 425.13 120 416.41C120 411.6 123.9 407.7 128.72 407.7C166.57 407.7 271.43 407.7 309.28 407.7C314.1 407.7 318 411.6 318 416.41Z"
            id="a4wQIWFvR"></path>
        <path
            d="M319 413.2C319 421.92 319 439.36 319 448.08C319 452.89 315.1 456.79 310.28 456.79C272.43 456.79 167.57 456.79 129.72 456.79C124.9 456.79 121 452.89 121 448.08C121 439.36 121 421.92 121 413.2C121 408.39 124.9 404.49 129.72 404.49C167.57 404.49 272.43 404.49 310.28 404.49C315.1 404.49 319 408.39 319 413.2Z"
            id="eUGkBYhLd"></path>
        <path
            d="M318 542.56C318 551.28 318 568.72 318 577.44C318 582.25 314.1 586.15 309.28 586.15C271.43 586.15 166.57 586.15 128.72 586.15C123.9 586.15 120 582.25 120 577.44C120 568.72 120 551.28 120 542.56C120 537.75 123.9 533.85 128.72 533.85C166.57 533.85 271.43 533.85 309.28 533.85C314.1 533.85 318 537.75 318 542.56Z"
            id="cl1tdCL0V"></path>
        <path
            d="M80 200C192.7 130.56 263.14 87.15 291.32 69.79C301.08 63.78 313.38 63.71 323.21 69.62C366.57 95.7 483.55 166.05 527.63 192.56C535.31 197.18 540 205.48 540 214.44C540 225.84 540 254.37 540 300"
            id="bdrVtbU6j"></path>
    </defs>
    <g>
        <g>
            <g>
                <use xlink:href="#bPhtz2H" opacity="1" fill="#000000" fill-opacity="0"></use>
                <g>
                    <use xlink:href="#bPhtz2H" opacity="1" fill-opacity="0" stroke="#1e1e1e" stroke-width="25"
                        stroke-opacity="1"></use>
                </g>
            </g>
            <g>
                <use xlink:href="#a4H36cHyFm" opacity="1" fill="#000000" fill-opacity="0"></use>
                <g>
                    <use xlink:href="#a4H36cHyFm" opacity="1" fill-opacity="0" stroke="#1e1e1e" stroke-width="25"
                        stroke-opacity="1"></use>
                </g>
            </g>
            <g>
                <use xlink:href="#a4aPShmgS4" opacity="1" fill="#000000" fill-opacity="0"></use>
                <g>
                    <use xlink:href="#a4aPShmgS4" opacity="1" fill-opacity="0" stroke="#1e1e1e" stroke-width="25"
                        stroke-opacity="1"></use>
                </g>
            </g>
            <g>
                <use xlink:href="#lW6VM5v0u" opacity="1" fill="#1e1e1e" fill-opacity="1"></use>
                <g>
                    <use xlink:href="#lW6VM5v0u" opacity="1" fill-opacity="0" stroke="#000000" stroke-width="1"
                        stroke-opacity="0"></use>
                </g>
            </g>
            <g>
                <use xlink:href="#a1uBThLtVd" opacity="1" fill="#000000" fill-opacity="0"></use>
                <g>
                    <use xlink:href="#a1uBThLtVd" opacity="1" fill-opacity="0" stroke="#1e1e1e" stroke-width="15"
                        stroke-opacity="1"></use>
                </g>
            </g>
            <g>
                <use xlink:href="#a246XicHPs" opacity="1" fill="#ffffff" fill-opacity="1"></use>
                <g>
                    <use xlink:href="#a246XicHPs" opacity="1" fill-opacity="0" stroke="#000000" stroke-width="1"
                        stroke-opacity="0"></use>
                </g>
            </g>
            <g>
                <use xlink:href="#c2FLIyGUlC" opacity="1" fill="#000000" fill-opacity="0"></use>
                <g>
                    <use xlink:href="#c2FLIyGUlC" opacity="1" fill-opacity="0" stroke="#1e1e1e" stroke-width="12"
                        stroke-opacity="1"></use>
                </g>
            </g>
            <g>
                <use xlink:href="#b2tHhNZ2fm" opacity="1" fill="#ffffff" fill-opacity="1"></use>
                <g>
                    <use xlink:href="#b2tHhNZ2fm" opacity="1" fill-opacity="0" stroke="#000000" stroke-width="1"
                        stroke-opacity="0"></use>
                </g>
            </g>
            <g>
                <use xlink:href="#j3wPBAcgGr" opacity="1" fill="#000000" fill-opacity="0"></use>
                <g>
                    <use xlink:href="#j3wPBAcgGr" opacity="1" fill-opacity="0" stroke="#1e1e1e" stroke-width="12"
                        stroke-opacity="1"></use>
                </g>
            </g>
            <g>
                <use xlink:href="#d7wfYm1gR" opacity="1" fill="#1e1e1e" fill-opacity="1"></use>
                <g>
                    <use xlink:href="#d7wfYm1gR" opacity="1" fill-opacity="0" stroke="#000000" stroke-width="1"
                        stroke-opacity="0"></use>
                </g>
            </g>
            <g>
                <use xlink:href="#a8Q4AwXgrs" opacity="1" fill="#000000" fill-opacity="0"></use>
                <g>
                    <use xlink:href="#a8Q4AwXgrs" opacity="1" fill-opacity="0" stroke="#1e1e1e" stroke-width="15"
                        stroke-opacity="1"></use>
                </g>
            </g>
            <g>
                <use xlink:href="#hTfQaIf1l" opacity="1" fill="#ffffff" fill-opacity="1"></use>
                <g>
                    <use xlink:href="#hTfQaIf1l" opacity="1" fill-opacity="0" stroke="#000000" stroke-width="1"
                        stroke-opacity="0"></use>
                </g>
            </g>
            <g>
                <use xlink:href="#eClN5Tz9L" opacity="1" fill="#000000" fill-opacity="0"></use>
                <g>
                    <use xlink:href="#eClN5Tz9L" opacity="1" fill-opacity="0" stroke="#1e1e1e" stroke-width="12"
                        stroke-opacity="1"></use>
                </g>
            </g>
            <g>
                <use xlink:href="#b5doise8u8" opacity="1" fill="#1e1e1e" fill-opacity="1"></use>
                <g>
                    <use xlink:href="#b5doise8u8" opacity="1" fill-opacity="0" stroke="#000000" stroke-width="1"
                        stroke-opacity="0"></use>
                </g>
            </g>
            <g>
                <use xlink:href="#a5wziTCTg" opacity="1" fill="#000000" fill-opacity="0"></use>
                <g>
                    <use xlink:href="#a5wziTCTg" opacity="1" fill-opacity="0" stroke="#1e1e1e" stroke-width="15"
                        stroke-opacity="1"></use>
                </g>
            </g>
            <g>
                <use xlink:href="#gYVoBfN04" opacity="1" fill="#ffffff" fill-opacity="1"></use>
                <g>
                    <use xlink:href="#gYVoBfN04" opacity="1" fill-opacity="0" stroke="#000000" stroke-width="1"
                        stroke-opacity="0"></use>
                </g>
            </g>
            <g>
                <use xlink:href="#b2qXv0SsaQ" opacity="1" fill="#000000" fill-opacity="0"></use>
                <g>
                    <use xlink:href="#b2qXv0SsaQ" opacity="1" fill-opacity="0" stroke="#1e1e1e" stroke-width="12"
                        stroke-opacity="1"></use>
                </g>
            </g>
            <g>
                <use xlink:href="#a4wQIWFvR" opacity="1" fill="#ffffff" fill-opacity="1"></use>
                <g>
                    <use xlink:href="#a4wQIWFvR" opacity="1" fill-opacity="0" stroke="#000000" stroke-width="1"
                        stroke-opacity="0"></use>
                </g>
            </g>
            <g>
                <use xlink:href="#eUGkBYhLd" opacity="1" fill="#000000" fill-opacity="0"></use>
                <g>
                    <use xlink:href="#eUGkBYhLd" opacity="1" fill-opacity="0" stroke="#1e1e1e" stroke-width="12"
                        stroke-opacity="1"></use>
                </g>
            </g>
            <g>
                <use xlink:href="#cl1tdCL0V" opacity="1" fill="#ffffff" fill-opacity="1"></use>
                <g>
                    <use xlink:href="#cl1tdCL0V" opacity="1" fill-opacity="0" stroke="#1e1e1e" stroke-width="12"
                        stroke-opacity="1"></use>
                </g>
            </g>
            <g>
                <g>
                    <use xlink:href="#bdrVtbU6j" opacity="1" fill-opacity="0" stroke="#1e1e1e" stroke-width="25"
                        stroke-opacity="1"></use>
                </g>
            </g>
        </g>
    </g>
</svg>